<svg id="Layer_1" data-name="Layer 1" xmlns="http://www.w3.org/2000/svg" viewBox="0 0 154.63 68.02"><defs><style>.cls-1{fill:#1f64ae;}.cls-2{fill:#e32328;}.cls-3{fill:#fff;}.cls-4{fill:#1e65ad;}</style></defs><polygon class="cls-1" points="74.64 47.92 70.7 47.92 70.7 43.6 68.14 43.6 68.14 54.62 70.7 54.62 70.7 50.04 74.64 50.04 74.64 54.62 77.18 54.62 77.18 43.6 74.64 43.6 74.64 47.92"/><polygon class="cls-1" points="81.73 50 85.95 50 85.95 47.92 81.73 47.92 81.73 45.73 86.67 45.73 86.67 43.6 79.18 43.6 79.18 54.62 86.68 54.62 86.68 52.49 81.73 52.49 81.73 50"/><path class="cls-1" d="M92.37,45.59l-4.11,11H91l.74-2.19h3.6l.74,2.19h2.71l-4.12-11Zm2.23,6.69H92.43L93.51,49Z" transform="translate(-1.18 -1.99)"/><polygon class="cls-1" points="101.14 43.6 98.58 43.6 98.58 54.62 105.81 54.62 105.81 52.49 101.14 52.49 101.14 43.6"/><polygon class="cls-1" points="105 45.73 108.21 45.73 108.21 54.62 110.77 54.62 110.77 45.73 114.04 45.73 114.04 43.6 105 43.6 105 45.73"/><polygon class="cls-1" points="121.86 47.92 117.92 47.92 117.92 43.6 115.37 43.6 115.37 54.62 117.92 54.62 117.92 50.04 121.86 50.04 121.86 54.62 124.4 54.62 124.4 43.6 121.86 43.6 121.86 47.92"/><path class="cls-1" d="M135.85,49a3.6,3.6,0,0,0-.29-1.47c-.56-1.26-1.88-1.93-3.82-1.93h-4.15v11h2.56V52.7h1.47l2,3.91h2.64v-.28L134,52.05A3.09,3.09,0,0,0,135.85,49Zm-5.7-1.26h1.59c1,0,1.57.48,1.57,1.44,0,1.16-.86,1.4-1.57,1.4h-1.59Z" transform="translate(-1.18 -1.99)"/><path class="cls-1" d="M140.74,45.59l-4.11,11h2.72l.74-2.19h3.6l.73,2.19h2.72l-4.12-11ZM143,52.28H140.8L141.88,49Z" transform="translate(-1.18 -1.99)"/><polygon class="cls-1" points="151.83 43.6 149.72 48.16 147.63 43.6 144.82 43.6 148.42 50.61 148.42 54.62 151.01 54.62 151.01 50.61 154.63 43.6 151.83 43.6"/><path class="cls-2" d="M155.76,62.21a28.65,28.65,0,0,1-8.11-4.52l.14.4-.14-.12,1,2.91H70.42l-1.73-3.77a1.35,1.35,0,0,0-1.26-.69h0a1.27,1.27,0,0,0-1.25.8L64.61,62l-.2.71-1.93-12.5a1.24,1.24,0,0,0-1.28-.94h-.05a1.29,1.29,0,0,0-1.3.8L56.1,62l-1.71-3.41a1.37,1.37,0,0,0-1.25-.66,1.34,1.34,0,0,0-1.25.69l-1,2.12H45c3.36-3.22,7-6.28,10.6-9.36,7.94-6.85,15.25-13.81,16.86-23,1.38-7.87.17-15-5.22-21.25A16,16,0,0,0,55.64,2C48.29,1.72,40,5.47,37.1,12.37,34.25,5.47,25.92,1.72,18.56,2A16,16,0,0,0,6.93,7.15C1.53,13.38.33,20.53,1.71,28.4c1.61,9.15,8.91,16.11,16.85,23C25.34,57.22,32.56,63,37.1,70a46.81,46.81,0,0,1,5.3-6.61h9.23a1.33,1.33,0,0,0,1.25-.69l.32-.7,1.95,3.87a1.35,1.35,0,0,0,1.24.66h0a1.28,1.28,0,0,0,1.25-.8l3-9.52,2,12.86A1.26,1.26,0,0,0,64,70h0a1.28,1.28,0,0,0,1.3-.83l1.9-6.6.46-1.45.79,1.73a1.36,1.36,0,0,0,1.27.69H148.8l-1.15,3.18.14-.12-.14.4a28.65,28.65,0,0,1,8.11-4.52l-.35-.14Z" transform="translate(-1.18 -1.99)"/><path class="cls-3" d="M69.24,16.77A12.85,12.85,0,0,0,56.39,29.62v.28h-10L44.55,26a1.17,1.17,0,0,0-1.08-.58h0a1.12,1.12,0,0,0-1.08.67l-1.52,4.8h0l-.44,1.54L38.32,19.09a1.06,1.06,0,0,0-1.09-.78h0a1.1,1.1,0,0,0-1.11.67l-3.9,12.33-1.92-3.83a1.17,1.17,0,0,0-1.07-.56h0a1.16,1.16,0,0,0-1.07.58l-1,2.24H17.51a2.23,2.23,0,1,0,0,2.25H27.66a1.16,1.16,0,0,0,1.08-.58l.49-1.07,2.12,4.24a1.18,1.18,0,0,0,1.07.55h0a1.09,1.09,0,0,0,1.06-.67l3.26-10.31L38.9,37.86a1.06,1.06,0,0,0,1.1.78h0A1.11,1.11,0,0,0,41.16,38l1.9-6.61.61-1.92,1,2.18a1.16,1.16,0,0,0,1.08.58H56.64a12.86,12.86,0,1,0,12.6-15.41Z" transform="translate(-1.18 -1.99)"/><path class="cls-4" d="M80.24,29.62a11,11,0,1,1-11-11A11,11,0,0,1,80.24,29.62Z" transform="translate(-1.18 -1.99)"/><path class="cls-3" d="M69.25,22.28a.51.51,0,1,0,.5.51A.51.51,0,0,0,69.25,22.28Z" transform="translate(-1.18 -1.99)"/><path class="cls-3" d="M74.45,24c-1-.38-2.12-1-2.91-1.29-.4-.12-.82-.11-1,.12s0,1-.16,1.29-.68.07-.84-.2l0,1.6a2.09,2.09,0,0,0,.48.82,1.59,1.59,0,0,0,1.14.39S70.08,26,70,25.27a2.77,2.77,0,0,0,1.32,1.34,2.44,2.44,0,0,0,.84,0s-1.44-.88-1.68-1.56a4.18,4.18,0,0,0,1.32,1.15,2,2,0,0,0,1.46.28,5.61,5.61,0,0,1-2.44-1.68s1.9,1.85,3.47,1.52a11.83,11.83,0,0,1-3.21-1.83c.34.3,3.08,2,4.3,1.61a12.45,12.45,0,0,1-4.08-2.08,14.54,14.54,0,0,0,3.27,1.68,3.12,3.12,0,0,0,1.84.11,17.09,17.09,0,0,1-5-2.31,23.19,23.19,0,0,0,4.26,1.94,2.39,2.39,0,0,0,1.74,0,14.79,14.79,0,0,1-2.94-.84,17.91,17.91,0,0,1-2.78-1.4,31.21,31.21,0,0,0,2.85,1.32,8.93,8.93,0,0,0,3,.68,1.19,1.19,0,0,0,.71-.27S77.39,25.11,74.45,24Z" transform="translate(-1.18 -1.99)"/><path class="cls-3" d="M68.06,24.12c-.19-.3,0-1-.16-1.29s-.55-.24-1-.12C66.16,23,65,23.62,64,24c-2.93,1.11-3.78.93-3.78.93a1.24,1.24,0,0,0,.71.27,9,9,0,0,0,3-.68c1-.34,2.84-1.32,2.84-1.32A17.34,17.34,0,0,1,64,24.6a14.6,14.6,0,0,1-2.94.84,2.41,2.41,0,0,0,1.75,0,23.06,23.06,0,0,0,4.25-1.94,17.09,17.09,0,0,1-5,2.31,3.12,3.12,0,0,0,1.84-.11,14.32,14.32,0,0,0,3.27-1.68,12.53,12.53,0,0,1-4.07,2.08c1.22.39,3.95-1.31,4.3-1.61a12,12,0,0,1-3.22,1.83c1.57.33,3.48-1.52,3.48-1.52a5.69,5.69,0,0,1-2.45,1.68,2,2,0,0,0,1.46-.28A4.18,4.18,0,0,0,68,25.08c-.23.68-1.68,1.56-1.68,1.56a2.44,2.44,0,0,0,.84,0,2.73,2.73,0,0,0,1.32-1.34c-.1.73-1.19,1.46-1.19,1.46a1.59,1.59,0,0,0,1.14-.39,2.09,2.09,0,0,0,.48-.82l0-1.6C68.74,24.19,68.22,24.38,68.06,24.12Z" transform="translate(-1.18 -1.99)"/><path class="cls-3" d="M70.68,30.22c0-.45-.85-.84-1.61-1.19s-1.33-.62-1.33-.94a.21.21,0,0,1,.19-.22.85.85,0,0,0,.5-.15c.29-.18.3-.3.22-.45a.44.44,0,0,0-.37-.15,1.06,1.06,0,0,0-.34.06.56.56,0,0,0-.37.3l0,0h0a.79.79,0,0,0-.37.56c0,.68,1,1.08,1.82,1.43.6.24,1.12.45,1.18.73h.52Z" transform="translate(-1.18 -1.99)"/><path class="cls-3" d="M71.32,28.09a.79.79,0,0,0-.37-.56h0l0,0c0-.1-.1-.2-.37-.3s-.62-.06-.7.09-.07.27.21.45a.85.85,0,0,0,.5.15h0a.21.21,0,0,1,.19.22c0,.32-.61.6-1.33.94l-.1,0c.2.09.4.19.58.29C70.62,29,71.32,28.67,71.32,28.09Z" transform="translate(-1.18 -1.99)"/><path class="cls-3" d="M69.16,29.65l-.2-.08-.36-.15c-.44.25-.79.51-.8.79l.52,0C68.38,30,68.73,29.84,69.16,29.65Z" transform="translate(-1.18 -1.99)"/><path class="cls-3" d="M69.42,29.12l.11-5.68a.13.13,0,0,1,.13-.13h0s0,0,0-.08a.11.11,0,0,0,0-.06.58.58,0,0,1-.44.21.62.62,0,0,1-.46-.21.08.08,0,0,0,0,.06c0,.06,0,.08,0,.08a.13.13,0,0,1,.13.13h0L69.06,29l0,0Z" transform="translate(-1.18 -1.99)"/><path class="cls-3" d="M69,30.94c-.41-.27-.7-.47-.7-.64a.2.2,0,0,1,0-.07c-.09,0-.15-.1-.24-.11s-.2.09-.28.09h0c0,.46.59.82,1.17,1.18s1,.62,1,1h.36C70.33,31.82,69.6,31.33,69,30.94Z" transform="translate(-1.18 -1.99)"/><path class="cls-3" d="M69.41,29.76l-.34-.14,0,1.31.28.19Z" transform="translate(-1.18 -1.99)"/><path class="cls-3" d="M69.48,30.94l-.18.12.35.25c.52-.32,1-.66,1-1.06-.1,0-.19-.06-.29-.06s-.15.06-.23.06a.07.07,0,0,1,0,.05C70.17,30.47,69.88,30.67,69.48,30.94Z" transform="translate(-1.18 -1.99)"/><path class="cls-3" d="M69.19,31.61l-.26-.16-.09-.06a1.5,1.5,0,0,0-.71,1l.35,0C68.51,32.09,68.81,31.85,69.19,31.61Z" transform="translate(-1.18 -1.99)"/><path class="cls-3" d="M69.22,35.63a1.18,1.18,0,0,1,.37.92,1.23,1.23,0,0,0-.1-.69,2.66,2.66,0,0,0-.43-.63,1,1,0,0,1-.34-.66.17.17,0,0,1,0-.07s-.08-.09-.14-.09-.09.09-.13.09C68.47,34.83,68.63,35,69.22,35.63Z" transform="translate(-1.18 -1.99)"/><path class="cls-3" d="M69.28,35.69a1.2,1.2,0,0,1,.31.86,1.23,1.23,0,0,0-.1-.69c0-.09-.09-.17-.13-.25l-.06.06Z" transform="translate(-1.18 -1.99)"/><path class="cls-3" d="M69.42,35.23l-.14.17.09.12c.52-.54.65-.73.65-1a.17.17,0,0,0,0-.07s-.14-.11-.19-.09,0,.14-.07.15a.34.34,0,0,1,0,.1A1,1,0,0,1,69.42,35.23Z" transform="translate(-1.18 -1.99)"/><path class="cls-3" d="M69.13,35.61a1.19,1.19,0,0,0-.13.25,1.15,1.15,0,0,0-.1.69,1.14,1.14,0,0,1,.3-.86l0,0Z" transform="translate(-1.18 -1.99)"/><path class="cls-3" d="M69.22,36.83a.35.35,0,0,0,0,.13.35.35,0,0,0,0-.13l0-1a.39.39,0,0,0-.08-.1Z" transform="translate(-1.18 -1.99)"/><path class="cls-3" d="M69.22,33.41c-.38-.37-.74-.72-.74-1v-.05a1.2,1.2,0,0,1-.19,0l-.16,0v0c0,.37.44.77.87,1.16a2.47,2.47,0,0,1,.75.89,1.22,1.22,0,0,1,.26-.06C70,34.12,69.58,33.76,69.22,33.41Z" transform="translate(-1.18 -1.99)"/><path class="cls-3" d="M69.2,33.85l-.2-.19c-.29.3-.54.59-.54.82v0h.27A1.41,1.41,0,0,1,69.2,33.85Z" transform="translate(-1.18 -1.99)"/><path class="cls-3" d="M69.28,33.39l.2.19h0c.43-.39.87-.79.87-1.16v0c-.07,0-.12,0-.18,0s-.12,0-.18,0a.06.06,0,0,1,0,0C70,32.68,69.66,33,69.28,33.39Z" transform="translate(-1.18 -1.99)"/><path class="cls-3" d="M69.19,35.29a1.47,1.47,0,0,1,.1.13l0-1.45a1.21,1.21,0,0,0-.16-.16Z" transform="translate(-1.18 -1.99)"/><path class="cls-3" d="M69.33,33.43l0-1.7-.26-.17,0,1.69.11.11Z" transform="translate(-1.18 -1.99)"/></svg>